<svg width="101" height="33" viewBox="0 0 101 33" fill="none" xmlns="http://www.w3.org/2000/svg">
<path d="M46.4952 5.45996C47.9756 5.45996 49.2483 5.80259 50.2405 6.4829L49.0713 9.40482C48.1494 8.71965 47.2562 8.57678 46.4952 8.57678C44.8667 8.57678 43.7494 9.44669 43.7494 11.5823V12.6639H48.4098V15.8125H43.7494V24.8453H40.4017V11.5823C40.4017 7.48013 42.8754 5.45996 46.4952 5.45996Z" fill="#3A3A3C"/>
<path d="M75.7374 10.6052C71.6146 10.6052 68.8854 12.9923 68.8854 17.6139V24.8329H72.2454V17.6263C72.2454 14.9877 73.6513 13.722 75.758 13.722C77.8648 13.722 79.2541 14.9877 79.2541 17.6263V24.8453H82.5977V17.6263C82.5895 12.9634 79.8355 10.6052 75.7374 10.6052Z" fill="#3A3A3C"/>
<path d="M62.0335 18.0221C62.0335 20.603 60.574 21.9223 58.525 21.9223C56.476 21.9223 55.0124 20.6607 55.0124 18.0221V10.9722H51.6729V18.0221C51.6729 22.9694 54.7073 25.0308 57.9066 25.0308C59.0811 25.0806 61.1697 24.6104 62.0293 23.3294L62.0308 23.329L62.0296 23.5707L62.0604 24.2781C62.0604 26.2981 61.0251 27.7679 58.2932 27.7679C56.5488 27.7679 54.5831 27.1648 52.7176 26.0731L51.9973 29.0775L53.189 29.6733C54.7738 30.4657 56.5214 30.8783 58.2932 30.8783C62.2015 30.8783 65.3697 29.0482 65.3697 23.5707V22.6294L65.3729 22.6268V10.9722H62.0335V18.0221Z" fill="#3A3A3C"/>
<path fill-rule="evenodd" clip-rule="evenodd" d="M85.509 17.9066C85.509 13.6973 88.5969 10.6052 92.9794 10.6052C97.3578 10.6052 100.45 13.6931 100.45 17.9066C100.45 22.1201 97.362 25.2081 92.9794 25.2081C88.5969 25.2081 85.509 22.116 85.509 17.9066ZM88.8773 17.9066C88.8773 20.3514 90.5346 22.0912 92.9794 22.0912C95.4201 22.0912 97.0528 20.3473 97.0528 17.9066C97.0528 15.4659 95.4325 13.722 92.9794 13.722C90.5264 13.722 88.8773 15.4618 88.8773 17.9066Z" fill="#3A3A3C"/>
<path d="M27.2455 14.5153C27.2425 14.6162 27.1631 14.6978 27.0625 14.7049C24.2162 14.9071 21.3652 15.0443 18.5125 15.1166C18.252 15.1232 18.0569 14.8803 18.0874 14.6216C18.1074 14.4521 18.1177 14.2796 18.1177 14.1048C18.1177 11.6923 16.1619 9.73652 13.7494 9.73652C11.3369 9.73652 9.38111 11.6923 9.38111 14.1048C9.38111 14.2796 9.39138 14.4521 9.41136 14.6216C9.44185 14.8803 9.24675 15.1232 8.98628 15.1166C6.13359 15.0443 3.28259 14.9071 0.436331 14.7049C0.335673 14.6978 0.256307 14.6162 0.253347 14.5153C0.249416 14.3813 0.247437 14.2469 0.247437 14.1119C0.247437 6.65501 6.29247 0.609985 13.7494 0.609985C21.2063 0.609985 27.2514 6.65501 27.2514 14.1119C27.2514 14.2469 27.2494 14.3813 27.2455 14.5153Z" fill="url(#paint0_linear_3607_1306)"/>
<path d="M26.9941 16.7483C27.0192 16.6214 26.9161 16.5067 26.7871 16.5156C18.1094 17.1134 9.3894 17.1133 0.711704 16.5156C0.582702 16.5067 0.479573 16.6214 0.50468 16.7482C0.599446 17.227 0.719528 17.6967 0.86347 18.1559C0.887722 18.2332 0.957241 18.2873 1.03812 18.2928C9.499 18.8663 17.9998 18.8663 26.4607 18.2928C26.5416 18.2873 26.6111 18.2332 26.6353 18.1559C26.7793 17.6967 26.8994 17.2271 26.9941 16.7483Z" fill="url(#paint1_linear_3607_1306)"/>
<path d="M25.6864 20.4321C25.7563 20.296 25.6507 20.1366 25.4979 20.1461C17.6759 20.6311 9.82293 20.6311 2.00085 20.1461C1.84809 20.1366 1.74244 20.2959 1.81233 20.4321C2.0575 20.9098 2.31612 21.3817 2.58243 21.8474C2.61563 21.9054 2.67595 21.9427 2.74271 21.9466C10.0708 22.3761 17.4248 22.3762 24.7529 21.9468C24.8195 21.9429 24.8797 21.9058 24.9129 21.848C25.1807 21.3824 25.4406 20.9102 25.6864 20.4321Z" fill="url(#paint2_linear_3607_1306)"/>
<path d="M4.20385 23.8158C4.03938 23.8076 3.937 23.9911 4.03253 24.1253C4.38686 24.6228 4.7519 25.0964 5.13098 25.5529C5.16653 25.5957 5.21854 25.6214 5.27414 25.6239C10.9133 25.8779 16.5642 25.8782 22.2034 25.6249C22.2588 25.6224 22.3106 25.5969 22.3462 25.5543C22.7278 25.0977 23.0956 24.6241 23.4527 24.1265C23.5488 23.9924 23.4465 23.8083 23.2817 23.8165C16.9279 24.1356 10.5577 24.1354 4.20385 23.8158Z" fill="url(#paint3_linear_3607_1306)"/>
<path d="M8.78365 29.1992C8.85268 29.2584 8.94011 29.2919 9.03106 29.2942C12.157 29.3723 15.3107 29.3726 18.4368 29.295C18.5279 29.2927 18.6155 29.2591 18.6846 29.1997C19.2144 28.744 19.7173 28.2922 20.1973 27.8348C20.3285 27.7099 20.2349 27.4911 20.0538 27.4971C15.8421 27.6367 11.6256 27.6364 7.41384 27.4961C7.23293 27.4901 7.13925 27.7085 7.27017 27.8335C7.74941 28.2911 8.25245 28.7433 8.78365 29.1992Z" fill="url(#paint4_linear_3607_1306)"/>
<path d="M11.4469 30.9269C11.257 30.9248 11.1727 31.1641 11.3229 31.2803C11.7826 31.6359 12.2806 32.0138 12.7858 32.3963C13.3579 32.8296 14.1499 32.8268 14.7216 32.3929L14.928 32.2363C15.3606 31.9081 15.7862 31.5852 16.1813 31.279C16.3311 31.1629 16.2468 30.9247 16.0573 30.9268C14.5677 30.9433 12.9367 30.9434 11.4469 30.9269Z" fill="url(#paint5_linear_3607_1306)"/>
<defs>
<linearGradient id="paint0_linear_3607_1306" x1="13.7494" y1="0.609985" x2="13.7494" y2="32.7198" gradientUnits="userSpaceOnUse">
<stop offset="0.232791" stop-color="#5856D6"/>
<stop offset="1" stop-color="#D485F0"/>
</linearGradient>
<linearGradient id="paint1_linear_3607_1306" x1="13.7494" y1="0.609985" x2="13.7494" y2="32.7198" gradientUnits="userSpaceOnUse">
<stop offset="0.232791" stop-color="#5856D6"/>
<stop offset="1" stop-color="#D485F0"/>
</linearGradient>
<linearGradient id="paint2_linear_3607_1306" x1="13.7494" y1="0.609985" x2="13.7494" y2="32.7198" gradientUnits="userSpaceOnUse">
<stop offset="0.232791" stop-color="#5856D6"/>
<stop offset="1" stop-color="#D485F0"/>
</linearGradient>
<linearGradient id="paint3_linear_3607_1306" x1="13.7494" y1="0.609985" x2="13.7494" y2="32.7198" gradientUnits="userSpaceOnUse">
<stop offset="0.232791" stop-color="#5856D6"/>
<stop offset="1" stop-color="#D485F0"/>
</linearGradient>
<linearGradient id="paint4_linear_3607_1306" x1="13.7494" y1="0.609985" x2="13.7494" y2="32.7198" gradientUnits="userSpaceOnUse">
<stop offset="0.232791" stop-color="#5856D6"/>
<stop offset="1" stop-color="#D485F0"/>
</linearGradient>
<linearGradient id="paint5_linear_3607_1306" x1="13.7494" y1="0.609985" x2="13.7494" y2="32.7198" gradientUnits="userSpaceOnUse">
<stop offset="0.232791" stop-color="#5856D6"/>
<stop offset="1" stop-color="#D485F0"/>
</linearGradient>
</defs>
</svg>
